<?xml version="1.0" encoding="utf-8"?>
<!-- Generator: Adobe Illustrator 23.0.4, SVG Export Plug-In . SVG Version: 6.00 Build 0)  -->
<svg version="1.1" id="Ebene_1" xmlns="http://www.w3.org/2000/svg" xmlns:xlink="http://www.w3.org/1999/xlink" x="0px" y="0px"
	 viewBox="0 0 95.7 92.1" style="enable-background:new 0 0 95.7 92.1;" xml:space="preserve">
<style type="text/css">
	.st0{fill:#555D66;}
	.st1{fill:#555D66;stroke:#FFFFFF;stroke-width:5.2381;stroke-miterlimit:10;}
	.st2{font-family:'Arial-Black';}
	.st3{font-size:91.0312px;}
</style>
<title>msc_stats</title>
<path class="st0" d="M20.1,18v12.8c0,1.3,1.1,2.4,2.4,2.4h50.8c1.3,0,2.4-1.1,2.4-2.4V18c0-1.3-1.1-2.4-2.4-2.4H22.5
	C21.2,15.6,20.1,16.7,20.1,18z"/>
<path class="st0" d="M20.8,52.4V39.7c0-1.3,1.1-2.4,2.4-2.4h22.5c1.3,0,2.4,1.1,2.4,2.4v12.8c0,1.3-1.1,2.4-2.4,2.4H23.2
	C21.9,54.9,20.8,53.8,20.8,52.4z"/>
<path class="st0" d="M20.8,74.1V61.3c0-1.3,1.1-2.4,2.4-2.4h38.9c1.3,0,2.4,1.1,2.4,2.4v12.8c0,1.3-1.1,2.4-2.4,2.4H23.2
	C21.9,76.5,20.8,75.4,20.8,74.1z"/>
<path class="st0" d="M95.7,85V2.8c0-1.6-1.3-2.8-2.8-2.8H7.2H2.8h0C1.3,0,0,1.3,0,2.8v4.3c0,0,0,0,0,0v82.1c0,1.6,1.3,2.8,2.8,2.8
	h85.7h4.3l0,0c1.6,0,2.8-1.3,2.8-2.8L95.7,85C95.7,85,95.7,85,95.7,85z M10,79.3V12.8c0-1.6,1.3-2.8,2.8-2.8h70.1
	c1.6,0,2.8,1.3,2.8,2.8v66.5c0,1.6-1.3,2.8-2.8,2.8H12.8C11.3,82.1,10,80.9,10,79.3z"/>
<text transform="matrix(1.1245 0 0 1 25.9692 79.23)" class="st1 st2 st3">1</text>
</svg>
