<?xml version="1.0" encoding="utf-8"?>
<!-- Generator: Adobe Illustrator 23.0.4, SVG Export Plug-In . SVG Version: 6.00 Build 0)  -->
<svg version="1.1" id="Ebene_1" xmlns="http://www.w3.org/2000/svg" xmlns:xlink="http://www.w3.org/1999/xlink" x="0px" y="0px"
	 viewBox="0 0 100.51 100.51" style="enable-background:new 0 0 100.51 100.51;" xml:space="preserve">
<style type="text/css">
	.st0{fill:#555D66;}
	.st1{fill:#FFFFFF;}
</style>
<path class="st0" d="M95.75,32.82h-1.02H5.77H4.76c-1.3,0-2.37,1.07-2.37,2.37v1.02v11.33v5.45v11.33v1.02
	c0,1.3,1.07,2.37,2.37,2.37h1.02h88.96h1.02c1.3,0,2.37-1.07,2.37-2.37v-1.02V52.98v-5.45V36.2v-1.02
	C98.12,33.88,97.05,32.82,95.75,32.82z"/>
<path class="st1" d="M95.5,38.12V62.5c0,1.56-1.27,2.84-2.83,2.84H7.84c-1.55,0-2.83-1.28-2.83-2.84V38.12
	c0-1.56,1.28-2.84,2.83-2.84h84.83C94.23,35.28,95.5,36.56,95.5,38.12z"/>
<path class="st0" d="M26.45,34.67l-5.49,31.24H6.68c-0.92,0-1.68-1.33-1.68-2.96V59.6l4.38-24.98h16.96L26.45,34.67z"/>
<path class="st0" d="M48.99,34.71L43.5,65.95H29.23c-0.92,0-0.54-0.04-1.78-0.04l-1,0.04l5.49-31.29h16.96L48.99,34.71z"/>
<path class="st0" d="M71.53,34.71l-5.49,31.24H51.77c-0.92,0-0.54-0.04-1.78-0.04l-1,0.04l5.49-31.29h16.96L71.53,34.71z"/>
<path class="st0" d="M94.08,34.71l-5.49,31.24H74.32c-0.92,0-0.54-0.04-1.78-0.04l-1,0.04l5.49-31.29h16.96L94.08,34.71z"/>
</svg>
