<?xml version="1.0" encoding="utf-8"?>
<!-- Generator: Adobe Illustrator 23.0.4, SVG Export Plug-In . SVG Version: 6.00 Build 0)  -->
<svg version="1.1" id="Ebene_1" xmlns="http://www.w3.org/2000/svg" xmlns:xlink="http://www.w3.org/1999/xlink" x="0px" y="0px"
	 viewBox="0 0 95.74 92.13" style="enable-background:new 0 0 95.74 92.13;" xml:space="preserve">
<style type="text/css">
	.st0{fill:#555D66;}
</style>
<title>msc_stats</title>
<path class="st0" d="M95.74,84.97v4.33c0,1.56-1.27,2.83-2.83,2.83l0,0H2.83C1.27,92.13,0,90.86,0,89.3l0,0V2.84
	C0,1.28,1.27,0.01,2.83,0h4.34C8.73,0.01,10,1.28,10,2.84V79.3c0,1.56,1.27,2.83,2.83,2.83c0,0,0,0,0,0h80.08
	C94.47,82.14,95.74,83.41,95.74,84.97z"/>
<path class="st0" d="M20.43,76.29h14.92c1.56,0,2.83-1.28,2.83-2.83V14.14c0-1.56-1.28-2.83-2.83-2.83H20.43
	c-1.56,0-2.83,1.28-2.83,2.83v59.31C17.6,75.01,18.87,76.29,20.43,76.29z"/>
<path class="st0" d="M60.66,75.42H45.74c-1.56,0-2.83-1.28-2.83-2.83V46.33c0-1.56,1.28-2.83,2.83-2.83h14.92
	c1.56,0,2.83,1.28,2.83,2.83v26.26C63.5,74.15,62.22,75.42,60.66,75.42z"/>
<path class="st0" d="M85.98,75.42H71.06c-1.56,0-2.83-1.28-2.83-2.83V27.11c0-1.56,1.28-2.83,2.83-2.83h14.92
	c1.56,0,2.83,1.28,2.83,2.83v45.48C88.81,74.15,87.53,75.42,85.98,75.42z"/>
</svg>
