<?xml version="1.0" encoding="utf-8"?>
<!-- Generator: Adobe Illustrator 23.0.4, SVG Export Plug-In . SVG Version: 6.00 Build 0)  -->
<svg version="1.1" id="Ebene_1" xmlns="http://www.w3.org/2000/svg" xmlns:xlink="http://www.w3.org/1999/xlink" x="0px" y="0px"
	 viewBox="0 0 100.51 100.51" style="enable-background:new 0 0 100.51 100.51;" xml:space="preserve">
<style type="text/css">
	.st0{fill:#555D66;}
</style>
<path class="st0" d="M95.75,67.8H4.76c-1.3,0-2.37-1.07-2.37-2.37V53.08c0-1.3,1.07-2.37,2.37-2.37h90.99c1.3,0,2.37,1.07,2.37,2.37
	v12.35C98.12,66.73,97.05,67.8,95.75,67.8z"/>
<path class="st0" d="M95.75,96.41H4.76c-1.3,0-2.37-1.07-2.37-2.37V81.69c0-1.3,1.07-2.37,2.37-2.37h90.99
	c1.3,0,2.37,1.07,2.37,2.37v12.35C98.12,95.34,97.05,96.41,95.75,96.41z"/>
<path class="st0" d="M95.75,4.28h-1.02H5.77H4.76c-1.3,0-2.37,1.07-2.37,2.37v1.02v11.33v5.45v11.33v1.02c0,1.3,1.07,2.37,2.37,2.37
	h1.02h88.96h1.02c1.3,0,2.37-1.07,2.37-2.37v-1.02V24.44v-5.45V7.66V6.65C98.12,5.34,97.05,4.28,95.75,4.28z"/>
</svg>
